<svg width="166" height="140" viewBox="0 0 166 140" fill="none" xmlns="http://www.w3.org/2000/svg">
<g id="table-4" class="table-group">
<path id="Table" d="M67 0.5H21C16.0294 0.5 12 4.52944 12 9.5C12 14.4706 16.0294 18.5 21 18.5H67C71.9706 18.5 76 14.4706 76 9.5C76 4.52944 71.9706 0.5 67 0.5Z" fill="white" stroke="#E8E8E8"/>
<path id="Table_2" d="M145 0.5H99C94.0294 0.5 90 4.52944 90 9.5C90 14.4706 94.0294 18.5 99 18.5H145C149.971 18.5 154 14.4706 154 9.5C154 4.52944 149.971 0.5 145 0.5Z" fill="white" stroke="#E8E8E8"/>
<path id="Table_3" d="M153 29.5H13C6.09644 29.5 0.5 35.0964 0.5 42V98C0.5 104.904 6.09644 110.5 13 110.5H153C159.904 110.5 165.5 104.904 165.5 98V42C165.5 35.0964 159.904 29.5 153 29.5Z" fill="white" stroke="#E8E8E8"/>
<path id="Table_4" d="M67 121.5H21C16.0294 121.5 12 125.529 12 130.5C12 135.471 16.0294 139.5 21 139.5H67C71.9706 139.5 76 135.471 76 130.5C76 125.529 71.9706 121.5 67 121.5Z" fill="white" stroke="#E8E8E8"/>
<path id="Table_5" d="M145 121.5H99C94.0294 121.5 90 125.529 90 130.5C90 135.471 94.0294 139.5 99 139.5H145C149.971 139.5 154 135.471 154 130.5C154 125.529 149.971 121.5 145 121.5Z" fill="white" stroke="#E8E8E8"/>
</g>
</svg>
