<svg width="95" height="140" viewBox="0 0 95 140" fill="none" xmlns="http://www.w3.org/2000/svg">
    <g id="table-2" class="table-group">
        <path id="Table"
            d="M70.5 0.5H24.5C19.5294 0.5 15.5 4.52944 15.5 9.5C15.5 14.4706 19.5294 18.5 24.5 18.5H70.5C75.4706 18.5 79.5 14.4706 79.5 9.5C79.5 4.52944 75.4706 0.5 70.5 0.5Z"
            fill="white" stroke="#E8E8E8" />
        <path id="Table_2"
            d="M82 29.5H13C6.09644 29.5 0.5 35.0964 0.5 42V98C0.5 104.904 6.09644 110.5 13 110.5H82C88.9036 110.5 94.5 104.904 94.5 98V42C94.5 35.0964 88.9036 29.5 82 29.5Z"
            fill="white" stroke="#E8E8E8" />
        <path id="Table_3"
            d="M70.5 121.5H24.5C19.5294 121.5 15.5 125.529 15.5 130.5C15.5 135.471 19.5294 139.5 24.5 139.5H70.5C75.4706 139.5 79.5 135.471 79.5 130.5C79.5 125.529 75.4706 121.5 70.5 121.5Z"
            fill="white" stroke="#E8E8E8" />
    </g>
</svg>
