<svg width="252" height="140" viewBox="0 0 252 140" fill="none" xmlns="http://www.w3.org/2000/svg">
<g id="table-6" class="table-group">
<path id="Table" d="M71 0.5H25C20.0294 0.5 16 4.52944 16 9.5C16 14.4706 20.0294 18.5 25 18.5H71C75.9706 18.5 80 14.4706 80 9.5C80 4.52944 75.9706 0.5 71 0.5Z" fill="white" stroke="#E8E8E8"/>
<path id="Table_2" d="M149 0.5H103C98.0294 0.5 94 4.52944 94 9.5C94 14.4706 98.0294 18.5 103 18.5H149C153.971 18.5 158 14.4706 158 9.5C158 4.52944 153.971 0.5 149 0.5Z" fill="white" stroke="#E8E8E8"/>
<path id="Table_3" d="M227 0.5H181C176.029 0.5 172 4.52944 172 9.5C172 14.4706 176.029 18.5 181 18.5H227C231.971 18.5 236 14.4706 236 9.5C236 4.52944 231.971 0.5 227 0.5Z" fill="white" stroke="#E8E8E8"/>
<path id="Table_4" d="M239 29.5H13C6.09644 29.5 0.5 35.0964 0.5 42V98C0.5 104.904 6.09644 110.5 13 110.5H239C245.904 110.5 251.5 104.904 251.5 98V42C251.5 35.0964 245.904 29.5 239 29.5Z" fill="white" stroke="#E8E8E8"/>
<path id="Table_5" d="M71 121.5H25C20.0294 121.5 16 125.529 16 130.5C16 135.471 20.0294 139.5 25 139.5H71C75.9706 139.5 80 135.471 80 130.5C80 125.529 75.9706 121.5 71 121.5Z" fill="white" stroke="#E8E8E8"/>
<path id="Table_6" d="M149 121.5H103C98.0294 121.5 94 125.529 94 130.5C94 135.471 98.0294 139.5 103 139.5H149C153.971 139.5 158 135.471 158 130.5C158 125.529 153.971 121.5 149 121.5Z" fill="white" stroke="#E8E8E8"/>
<path id="Table_7" d="M227 121.5H181C176.029 121.5 172 125.529 172 130.5C172 135.471 176.029 139.5 181 139.5H227C231.971 139.5 236 135.471 236 130.5C236 125.529 231.971 121.5 227 121.5Z" fill="white" stroke="#E8E8E8"/>
</g>
</svg>
